<?xml version="1.0" encoding="UTF-8"?>
<svg version="1.1" xmlns="http://www.w3.org/2000/svg" width="41" height="31">
<path d="M0 0 C1.32 0 2.64 0 4 0 C4.33 0.99 4.66 1.98 5 3 C9.73049162 4.20901003 14.34151932 4.14820502 19.1875 4.125 C20.00669922 4.12886719 20.82589844 4.13273438 21.66992188 4.13671875 C25.97018773 4.25228997 25.97018773 4.25228997 30 3 C30.33 2.01 30.66 1.02 31 0 C33.475 0.495 33.475 0.495 36 1 C35.4740625 1.7734375 35.4740625 1.7734375 34.9375 2.5625 C33.60474853 6.02765382 34.1562821 8.43042427 35 12 C35.515625 12.515625 36.03125 13.03125 36.5625 13.5625 C38 15 38 15 38.5 17.9375 C38 21 38 21 35.8125 23 C34.4203125 23.99 34.4203125 23.99 33 25 C32.33355469 26.01578125 31.66710938 27.0315625 30.98046875 28.078125 C29.27369486 30.16761072 28.35181898 30.91027284 25.71020508 31.58398438 C22.95055155 31.80852649 20.26759442 31.81852366 17.5 31.75 C16.09427734 31.78480469 16.09427734 31.78480469 14.66015625 31.8203125 C7.96733704 31.76335234 7.96733704 31.76335234 5.3293457 29.68164062 C4.01953125 28.078125 4.01953125 28.078125 2 25 C0.6078125 24.01 0.6078125 24.01 -0.8125 23 C-3 21 -3 21 -3.5625 18.0625 C-2.88371937 14.36691659 -1.39885914 12.83501535 1 10 C1.78946609 7.31492671 1.78946609 7.31492671 2 5 C1.34 4.67 0.68 4.34 0 4 C0 2.68 0 1.36 0 0 Z " fill="#9E4FF4" transform="translate(3,0)"/>
<path d="M0 0 C0.95003906 -0.01546875 1.90007813 -0.0309375 2.87890625 -0.046875 C9.75251067 -0.00820493 9.75251067 -0.00820493 13.16015625 2.30859375 C14.5 4.5 14.5 4.5 14.4375 8.0625 C13.17729084 12.68326693 13.17729084 12.68326693 10.5 14.5 C4.1789232 17.43750557 -2.45018277 17.58922044 -9 15.25 C-11.53971988 13.47219608 -13.05098692 12.23702471 -14.5 9.5 C-15.04698462 6.37437358 -14.85315111 5.04733392 -13.12890625 2.375 C-9.00723406 -0.56467705 -4.93451549 -0.08034489 0 0 Z " fill="#0C3749" transform="translate(20.5,10.5)"/>
<path d="M0 0 C1.32 0 2.64 0 4 0 C4.33 0.99 4.66 1.98 5 3 C7.50447516 4.21869929 7.50447516 4.21869929 10 5 C10.375 7.1875 10.375 7.1875 10 10 C8.989375 10.78375 7.97875 11.5675 6.9375 12.375 C5.968125 13.24125 4.99875 14.1075 4 15 C3.66339855 18.64407137 3.66339855 18.64407137 5 22 C7.29321697 24.29321697 8.90786415 24.96928805 12 26 C12 27.65 12 29.3 12 31 C9.8125 31.375 9.8125 31.375 7 31 C4.5 28.25 4.5 28.25 3.26953125 26.578125 C1.91456844 24.7474583 1.91456844 24.7474583 -0.8125 23 C-3 21 -3 21 -3.5625 18.0625 C-2.88371937 14.36691659 -1.39885914 12.83501535 1 10 C1.78946609 7.31492671 1.78946609 7.31492671 2 5 C1.34 4.67 0.68 4.34 0 4 C0 2.68 0 1.36 0 0 Z " fill="#D65FDF" transform="translate(3,0)"/>
<path d="M0 0 C0.66 0 1.32 0 2 0 C3.04892238 1.63631892 4.04906703 3.30485863 5 5 C5.33 5.33 5.66 5.66 6 6 C6.375 8.8125 6.375 8.8125 6 12 C3.8125 14 3.8125 14 1 16 C0.2884375 17.02351563 -0.423125 18.04703125 -1.15625 19.1015625 C-2.69750304 20.99538977 -3.51645374 21.876087 -5.90161133 22.48730469 C-8.06686034 22.58965178 -10.15036318 22.52571195 -12.3125 22.375 C-13.42334961 22.33439453 -13.42334961 22.33439453 -14.55664062 22.29296875 C-16.37235998 22.22268284 -18.18656801 22.11507089 -20 22 C-20 20.68 -20 19.36 -20 18 C-19.27554687 17.96261719 -18.55109375 17.92523437 -17.8046875 17.88671875 C-12.26139964 17.50977518 -7.74585089 17.16390059 -3 14 C-0.54342155 10.31513232 -0.92368659 8.34986453 -1 4 C-0.5 1.5625 -0.5 1.5625 0 0 Z " fill="#6380F4" transform="translate(35,9)"/>
<path d="M0 0 C2.475 0.495 2.475 0.495 5 1 C4.70351563 1.56203125 4.40703125 2.1240625 4.1015625 2.703125 C2.99056497 5.01967305 2.16535294 7.30709092 1.375 9.75 C1.11460938 10.54921875 0.85421875 11.3484375 0.5859375 12.171875 C0.39257812 12.77515625 0.19921875 13.3784375 0 14 C-0.99 13.34 -1.98 12.68 -3 12 C-5.12337771 11.63566627 -5.12337771 11.63566627 -7.44921875 11.5859375 C-8.29677734 11.54726562 -9.14433594 11.50859375 -10.01757812 11.46875 C-10.89865234 11.4378125 -11.77972656 11.406875 -12.6875 11.375 C-13.58017578 11.33632812 -14.47285156 11.29765625 -15.39257812 11.2578125 C-17.5948462 11.16359782 -19.79710722 11.07798412 -22 11 C-22 10.67 -22 10.34 -22 10 C-11.605 9.505 -11.605 9.505 -1 9 C-1.99 7.68 -2.98 6.36 -4 5 C-3.01 4.34 -2.02 3.68 -1 3 C-0.67 2.01 -0.34 1.02 0 0 Z " fill="#5876C3" transform="translate(34,0)"/>
<path d="M0 0 C3.83132316 1.56090944 6.1075134 4.1075134 9 7 C9.99 7.33 10.98 7.66 12 8 C12 9.65 12 11.3 12 13 C9.8125 13.375 9.8125 13.375 7 13 C4.3125 10.125 4.3125 10.125 2 7 C1.34 6.34 0.68 5.68 0 5 C-0.125 2.375 -0.125 2.375 0 0 Z " fill="#CE5EE0" transform="translate(3,18)"/>
<path d="M0 0 C0.66 0 1.32 0 2 0 C3.04892238 1.63631892 4.04906703 3.30485863 5 5 C5.33 5.33 5.66 5.66 6 6 C6.04080783 7.99958364 6.04254356 10.00045254 6 12 C4.02 12.99 4.02 12.99 2 14 C-0.63091471 10.05362794 -1.40815007 6.27397897 -0.5625 1.5625 C-0.376875 1.046875 -0.19125 0.53125 0 0 Z " fill="#5F9CFD" transform="translate(35,9)"/>
<path d="M0 0 C3.73487777 0.4979837 5.81237635 0.87491756 9 3 C9 3.66 9 4.32 9 5 C6.29120665 6.35439668 3.99066732 6.06501451 1 6 C-0.0625 4.125 -0.0625 4.125 -1 2 C-0.67 1.34 -0.34 0.68 0 0 Z " fill="#7775FE" transform="translate(24,4)"/>
<path d="M0 0 C5.45454545 0.45454545 5.45454545 0.45454545 8 3 C7.67 3.99 7.34 4.98 7 6 C5.906875 5.814375 4.81375 5.62875 3.6875 5.4375 C0.06375867 4.7421932 0.06375867 4.7421932 -3 6 C-2.42655063 3.13275314 -2.1385485 2.1385485 0 0 Z " fill="#845CE8" transform="translate(18,18)"/>
<path d="M0 0 C1.65 0.33 3.3 0.66 5 1 C3.66666667 3.66666667 2.33333333 6.33333333 1 9 C-0.65 7.68 -2.3 6.36 -4 5 C-3.01 4.34 -2.02 3.68 -1 3 C-0.67 2.01 -0.34 1.02 0 0 Z " fill="#0B384E" transform="translate(34,0)"/>
<path d="M0 0 C3.3 0 6.6 0 10 0 C9.34 1.32 8.68 2.64 8 4 C5.36 4 2.72 4 0 4 C0 2.68 0 1.36 0 0 Z " fill="#964EF7" transform="translate(15,27)"/>
<path d="M0 0 C1.32 0 2.64 0 4 0 C4.33 0.99 4.66 1.98 5 3 C5.99 3.33 6.98 3.66 8 4 C8 4.66 8 5.32 8 6 C6.35 6.66 4.7 7.32 3 8 C2.67 7.01 2.34 6.02 2 5 C1.34 4.67 0.68 4.34 0 4 C0 2.68 0 1.36 0 0 Z " fill="#4C4B96" transform="translate(3,0)"/>
<path d="M0 0 C1.65 0.33 3.3 0.66 5 1 C5 2.65 5 4.3 5 6 C3.35 6 1.7 6 0 6 C-1.125 2.25 -1.125 2.25 0 0 Z " fill="#B356EC" transform="translate(10,25)"/>
<path d="M0 0 C0.3125 2.3125 0.3125 2.3125 0 5 C-2.5 6.8125 -2.5 6.8125 -5 8 C-5.33 6.02 -5.66 4.04 -6 2 C-2.25 0 -2.25 0 0 0 Z " fill="#B659E1" transform="translate(13,5)"/>
<path d="M0 0 C1.32 0 2.64 0 4 0 C4.33 1.98 4.66 3.96 5 6 C2.69 6 0.38 6 -2 6 C-1.34 4.02 -0.68 2.04 0 0 Z " fill="#824FFD" transform="translate(20,4)"/>
<path d="M0 0 C1.32 0 2.64 0 4 0 C4 0.99 4 1.98 4 3 C3.34 3 2.68 3 2 3 C2 3.66 2 4.32 2 5 C0.35 5 -1.3 5 -3 5 C-1.125 1.125 -1.125 1.125 0 0 Z " fill="#716BFD" transform="translate(26,26)"/>
<path d="M0 0 C0.66 1.32 1.32 2.64 2 4 C0.35 5.65 -1.3 7.3 -3 9 C-3.36923077 3.46153846 -3.36923077 3.46153846 -1.5 1.125 C-1.005 0.75375 -0.51 0.3825 0 0 Z " fill="#5D91F9" transform="translate(36,19)"/>
<path d="M0 0 C2.76223278 2.76223278 2.57856291 5.20706617 3 9 C1.68 8.34 0.36 7.68 -1 7 C-1.04254356 5.00045254 -1.04080783 2.99958364 -1 1 C-0.67 0.67 -0.34 0.34 0 0 Z " fill="#EB99EB" transform="translate(1,14)"/>
<path d="M0 0 C0.66 0.33 1.32 0.66 2 1 C2.1875 3.875 2.1875 3.875 2 7 C1.01 7.66 0.02 8.32 -1 9 C-0.67 6.03 -0.34 3.06 0 0 Z " fill="#96C1FE" transform="translate(39,14)"/>
<path d="M0 0 C2.475 0.495 2.475 0.495 5 1 C4.34 2.32 3.68 3.64 3 5 C2.01 4.34 1.02 3.68 0 3 C0 2.01 0 1.02 0 0 Z " fill="#7D66E5" transform="translate(34,0)"/>
<path d="M0 0 C1.65 0 3.3 0 5 0 C4.34 1.32 3.68 2.64 3 4 C1.68 4 0.36 4 -1 4 C-0.67 2.68 -0.34 1.36 0 0 Z " fill="#7F50FE" transform="translate(20,27)"/>
</svg>
